<svg xmlns="http://www.w3.org/2000/svg" xmlns:xlink="http://www.w3.org/1999/xlink" width="500" zoomAndPan="magnify" viewBox="0 0 375 374.999991" height="500" preserveAspectRatio="xMidYMid meet" version="1.0"><defs><clipPath id="1547ca7486"><path d="M 77.546875 135 L 141 135 L 141 337.722656 L 77.546875 337.722656 Z M 77.546875 135 " clip-rule="nonzero"/></clipPath><clipPath id="d77b493fe9"><path d="M 156 83 L 219 83 L 219 337.722656 L 156 337.722656 Z M 156 83 " clip-rule="nonzero"/></clipPath><clipPath id="b9e7ebd3e0"><path d="M 234 38.472656 L 297.296875 38.472656 L 297.296875 337.722656 L 234 337.722656 Z M 234 38.472656 " clip-rule="nonzero"/></clipPath></defs><g clip-path="url(#1547ca7486)"><path fill="#81d58a" d="M 140.59375 208.902344 L 118.277344 231.308594 L 140.59375 231.308594 L 140.59375 315.519531 L 77.742188 337.925781 L 77.742188 157.992188 L 140.59375 135.589844 Z M 140.59375 208.902344 " fill-opacity="1" fill-rule="nonzero"/></g><g clip-path="url(#d77b493fe9)"><path fill="#81d58a" d="M 218.96875 150.667969 L 196.5625 173.074219 L 218.96875 173.074219 L 218.96875 315.519531 L 156.113281 337.925781 L 156.113281 231.308594 L 178.429688 231.308594 L 156.113281 208.992188 L 156.113281 106.121094 L 218.96875 83.71875 Z M 218.96875 150.667969 " fill-opacity="1" fill-rule="nonzero"/></g><g clip-path="url(#b9e7ebd3e0)"><path fill="#258730" d="M 297.25 315.519531 L 234.398438 337.925781 L 234.398438 173.074219 L 256.800781 173.074219 L 234.398438 150.667969 L 234.398438 61.3125 L 297.25 38.910156 Z M 297.25 315.519531 " fill-opacity="1" fill-rule="nonzero"/></g></svg>